<svg xmlns="http://www.w3.org/2000/svg" xml:space="preserve" width="2048" height="2048" style="shape-rendering:geometricPrecision;text-rendering:geometricPrecision;image-rendering:optimizeQuality;fill-rule:evenodd;clip-rule:evenodd"><rect x="256" y="256" width="1536" height="1536" rx="256" ry="256" style="fill:#b0bec5"/><path d="M512 256h1024c141 0 256 115 256 256v128H256V512c0-141 115-256 256-256z" style="fill:#263238"/><path d="M1372 1158h17v1h2l-1 33 1 33h-2v1h-17c-19 1-41 4-57 15-11 8-18 18-23 30-6 15 3 68 5 85 11 77 29 187-53 235-14 8-30 14-47 18-19 4-39 6-58 7l-18 1-2-67 18-1c15 0 30-2 44-5 9-2 18-5 26-9 4-2 7-5 11-9 30-33 16-118 10-160-5-34-14-87-1-119 9-21 22-39 39-53-18-14-31-32-39-53-14-32-4-85 1-119 2-13 4-26 5-39 4-35 12-107-26-129-8-5-17-8-26-9-14-3-30-4-44-5l-18-1 2-67 18 1c19 1 39 2 58 7 16 4 32 9 47 18 82 48 64 158 53 235-2 17-11 70-5 85 5 12 12 22 23 30 16 11 37 15 57 15zm-590 34c18 14 31 32 39 53 14 32 4 85-1 119-2 13-4 26-5 39-4 35-12 107 26 129 8 5 17 8 26 9 14 3 30 4 44 5l18 1-2 67-18-1c-19-1-39-2-58-7-16-4-32-9-47-18-82-48-64-158-53-235 2-17 11-70 5-85-5-12-12-22-23-30-16-11-37-15-57-15h-17v-1h-2l1-33-1-33h2v-1h17c19-1 41-4 57-15 11-8 18-18 23-30 6-15-3-68-5-85-11-77-29-187 53-235 14-8 30-14 47-18 19-4 39-6 58-7l18-1 2 67-18 1c-15 0-30 2-44 5-9 2-18 5-26 9-4 2-7 5-11 9-30 33-16 118-10 160 5 34 14 87 1 119-9 21-22 39-39 53z" style="fill:#19252b"/><rect x="1434" y="416" width="94" height="94" rx="20" ry="20" style="fill:#ff6f00"/><rect x="1556" y="416" width="94" height="94" rx="20" ry="20" style="fill:#d50000"/><rect x="1312" y="416" width="94" hei<svg xmlns="http://www.w3.org/2000/svg" viewBox="0 0 48 48"><g data-name="07-web development"><path d="M45 40H3a3 3 0 0 1-3-3V11a3 3 0 0 1 3-3h3v2H3a1 1 0 0 0-1 1v26a1 1 0 0 0 1 1h42a1 1 0 0 0 1-1V11a1 1 0 0 0-1-1h-3V8h3a3 3 0 0 1 3 3v26a3 3 0 0 1-3 3z"/><path d="M15 39h2v4h-2z"/><path d="M13 47h-2v-2a3 3 0 0 1 3-3h10v2H14a1 1 0 0 0-1 1zM31 39h2v4h-2z"/><path d="M37 47h-2v-2a1 1 0 0 0-1-1h-5v-2h5a3 3 0 0 1 3 3z"/><path d="M9 46h30v2H9zM40 36H8a3 3 0 0 1-3-3V3a3 3 0 0 1 3-3h32a3 3 0 0 1 3 3v30a3 3 0 0 1-3 3zM8 2a1 1 0 0 0-1 1v30a1 1 0 0 0 1 1h32a1 1 0 0 0 1-1V3a1 1 0 0 0-1-1z"/><path d="M6 6h36v2H6zM9 3h2v2H9zM13 3h2v2h-2zM17 3h2v2h-2zM1 30h5v2H1zM42 30h5v2h-5zM32 36h-4a1 1 0 0 1-1-1V20.191a5.992 5.992 0 0 1 .6-10.685 1 1 0 0 1 1.4.916V14h2v-3.578a1 1 0 0 1 1.4-.916 5.992 5.992 0 0 1 .6 10.685V35a1 1 0 0 1-1 1zm-3-2h2V19.578a1 1 0 0 1 .6-.916 3.991 3.991 0 0 0 1.4-6.3V15a1 1 0 0 1-1 1h-4a1 1 0 0 1-1-1v-2.641a3.991 3.991 0 0 0 1.4 6.3 1 1 0 0 1 .6.916z"/><rect x="15" y="10" width="4" height="6" rx="1" ry="1"/><path d="M19 36h-4a1 1 0 0 1-1-1V25a1 1 0 0 1 1-1h4a1 1 0 0 1 1 1v10a1 1 0 0 1-1 1zm-3-2h2v-8h-2z"/><path d="M13 24h8v2h-8z"/><path d="M16 15h2v10h-2zM15 27h4v2h-4zM9 30h2v2H9zM37 30h2v2h-2zM37 10h2v2h-2zM9 10h2v2H9z"/></g></svg>ght="94" rx="20" ry="20" style="fill:#8bc34a"/><path style="fill:none" d="M0 0h2048v2048H0z"/></svg>