<svg xmlns="http://www.w3.org/2000/svg" xml:space="preserve" width="2048" height="2048" style="shape-rendering:geometricPrecision;text-rendering:geometricPrecision;image-rendering:optimizeQuality;fill-rule:evenodd;clip-rule:evenodd"><rect x="256" y="256" width="1536" height="1536" rx="256" ry="256" style="fill:#b0bec5"/><path d="M512 256h1024c141 0 256 115 256 256v128H256V512c0-141 115-256 256-256z" style="fill:#263238"/><path d="M1372 1158h17v1h2l-1 33 1 33h-2v1h-17c-19 1-41 4-57 15-11 8-18 18-23 30-6 15 3 68 5 85 11 77 29 187-53 235-14 8-30 14-47 18-19 4-39 6-58 7l-18 1-2-67 18-1c15 0 30-2 44-5 9-2 18-5 26-9 4-2 7-5 11-9 30-33 16-118 10-160-5-34-14-87-1-119 9-21 22-39 39-53-18-14-31-32-39-53-14-32-4-85 1-119 2-13 4-26 5-39 4-35 12-107-26-129-8-5-17-8-26-9-14-3-30-4-44-5l-18-1 2-67 18 1c19 1 39 2 58 7 16 4 32 9 47 18 82 48 64 158 53 235-2 17-11 70-5 85 5 12 12 22 23 30 16 11 37 15 57 15zm-590 34c18 14 31 32 39 53 14 32 4 85-1 119-2 13-4 26-5 39-4 35-12 107 26 129 8 5 17 8 26 9 14 3 30 4 44 5l18 1-2 67-18-1c-19-1-39-2-58-7-16-4-32-9-47-18-82-48-64-158-53-235 2-17 11-70 5-85-5-12-12-22-23-30-16-11-37-15-57-15h-17v-1h-2l1-33-1-33h2v-1h17c19-1 41-4 57-15 11-8 18-18 23-30 6-15-3-68-5-85-11-77-29-187 53-235 14-8 30-14 47-18 19-4 39-6 58-7l18-1 2 67-18 1c-15 0-30 2-44 5-9 2-18 5-26 9-4 2-7 5-11 9-30 33-16 118-10 160 5 34 14 87 1 119-9 21-22 39-39 53z" style="fill:#19252b"/><rect x="1434" y="416" width="94" height="94" rx="20" ry="20" style="fill:#ff6f00"/><rect x="1556" y="416" width="94" height="94" rx="20" ry="20" style="fill:#d50000"/><rect x="1312" y="416" width="94" height="94" rx="20" ry="20" style="fill:#8bc34a"/><path style="fill:none" d="M0 0h2048v2048H0z"/></svg>